<svg width="216" height="56" viewBox="0 0 216 56" fill="none" xmlns="http://www.w3.org/2000/svg">
<path opacity="0.2" d="M31.9247 16.1876C30.7847 16.1876 29.6447 15.9276 28.5947 15.4176L25.4347 13.8776C23.4247 12.8976 22.5847 10.4676 23.5647 8.45763C24.5447 6.44763 26.9647 5.60763 28.9847 6.58763L31.9347 8.02763L43.1747 2.88763C45.2147 1.95763 47.6147 2.84763 48.5447 4.88763C49.4747 6.91763 48.5847 9.32763 46.5447 10.2576L35.0947 15.4976C34.0847 15.9576 33.0047 16.1876 31.9347 16.1876H31.9247Z" fill="#BC1E90"/>
<path d="M89.1743 20.7226C91.6843 20.7226 93.0443 21.5726 93.6743 22.1026C93.9043 22.2726 93.9143 22.2726 94.0943 22.2726H94.2643C94.4343 22.2726 94.4743 22.2426 94.4743 22.0326V14.7826C94.4743 14.4326 94.5643 14.3126 94.9243 14.2426C95.3743 14.1526 95.9343 14.1226 96.5143 14.1226C97.0943 14.1226 97.6443 14.1526 98.1043 14.2426C98.4743 14.3126 98.5443 14.4326 98.5443 14.7826V35.9826C98.5443 36.3126 98.4943 36.4526 98.1443 36.5026C97.7743 36.5526 97.1843 36.5926 96.6443 36.5926C96.1043 36.5926 95.5943 36.5626 95.2843 36.5026C94.9743 36.4526 94.8643 36.3626 94.8343 36.1226L94.6943 35.2726C94.6743 35.1126 94.6043 35.0826 94.4543 35.0826H94.3543C94.1643 35.0826 94.1243 35.1026 94.0043 35.2026C92.9043 36.1926 91.4243 36.7726 89.1943 36.7726C84.7643 36.7726 81.6143 34.2626 81.6143 28.7526C81.6143 23.2426 84.7743 20.7326 89.1943 20.7326L89.1743 20.7226ZM90.1943 33.8826C93.4543 33.8826 94.7143 31.9626 94.7143 28.7426C94.7143 25.5226 93.4543 23.6026 90.1943 23.6026C86.9343 23.6026 85.6743 25.5226 85.6743 28.7426C85.6743 31.9626 86.9343 33.8826 90.1943 33.8826Z" fill="#2D2E82"/>
<path d="M112.264 20.7225C116.694 20.7225 119.844 23.2325 119.844 28.7425C119.844 34.2526 116.684 36.7625 112.264 36.7625C110.034 36.7625 108.554 36.1825 107.454 35.1925C107.334 35.0925 107.294 35.0725 107.104 35.0725H106.994C106.834 35.0725 106.764 35.1025 106.754 35.2625L106.614 36.1125C106.574 36.3525 106.474 36.4425 106.164 36.4925C105.854 36.5425 105.324 36.5826 104.804 36.5826C104.284 36.5826 103.674 36.5525 103.304 36.4925C102.954 36.4425 102.904 36.3025 102.904 35.9725V14.7725C102.904 14.4225 102.974 14.3025 103.344 14.2325C103.794 14.1425 104.354 14.1125 104.934 14.1125C105.514 14.1125 106.064 14.1425 106.524 14.2325C106.894 14.3025 106.974 14.4225 106.974 14.7725V22.0225C106.974 22.2325 107.004 22.2625 107.184 22.2625H107.354C107.524 22.2625 107.544 22.2625 107.774 22.0925C108.404 21.5725 109.764 20.7125 112.274 20.7125L112.264 20.7225ZM111.234 33.8825C114.494 33.8825 115.754 31.9625 115.754 28.7425C115.754 25.5225 114.504 23.6025 111.234 23.6025C107.964 23.6025 106.714 25.5225 106.714 28.7425C106.714 31.9625 107.974 33.8825 111.234 33.8825Z" fill="#2D2E82"/>
<path d="M124.145 16.6426C124.145 16.2426 124.215 16.0826 124.655 16.0126C125.055 15.9426 125.595 15.8926 126.255 15.8926C126.915 15.8926 127.455 15.9426 127.875 16.0126C128.315 16.0826 128.385 16.2426 128.385 16.6426V33.0326C128.385 33.2726 128.495 33.4126 128.765 33.4126H139.245C139.545 33.4126 139.665 33.4626 139.715 33.7826C139.765 34.0826 139.805 34.4926 139.805 34.9526C139.805 35.4126 139.765 35.8226 139.715 36.1226C139.665 36.4326 139.545 36.4926 139.245 36.4926H124.945C124.405 36.4926 124.145 36.3326 124.145 35.7226V16.6426Z" fill="#2D2E82"/>
<path d="M141.635 15.8725C141.635 14.6125 142.555 13.7125 143.815 13.7125C145.075 13.7125 145.995 14.6225 145.995 15.8725C145.995 17.1225 145.075 18.0325 143.815 18.0325C142.555 18.0325 141.635 17.1225 141.635 15.8725ZM141.795 35.9225V21.5025C141.795 21.1525 141.865 21.0325 142.235 20.9625C142.685 20.8725 143.245 20.8425 143.825 20.8425C144.405 20.8425 144.955 20.8725 145.415 20.9625C145.785 21.0325 145.865 21.1525 145.865 21.5025V35.9225C145.865 36.2725 145.775 36.4325 145.415 36.4825C144.965 36.5525 144.425 36.5825 143.825 36.5825C143.225 36.5825 142.705 36.5525 142.255 36.4825C141.885 36.4325 141.805 36.2725 141.805 35.9225H141.795Z" fill="#2D2E82"/>
<path d="M155.004 22.5125C155.494 22.0025 156.764 20.6625 159.884 20.6625C163.894 20.6625 166.074 22.6725 166.074 27.5325V35.9225C166.074 36.2725 165.984 36.4325 165.624 36.4825C165.174 36.5525 164.634 36.5825 164.034 36.5825C163.434 36.5825 162.914 36.5525 162.464 36.4825C162.094 36.4325 162.014 36.2725 162.014 35.9225V28.1825C162.014 25.3425 161.174 23.7325 158.424 23.7325C155.674 23.7325 154.514 25.4225 154.514 28.7725V35.9225C154.514 36.2725 154.424 36.4325 154.064 36.4825C153.614 36.5525 153.074 36.5825 152.474 36.5825C151.874 36.5825 151.354 36.5525 150.904 36.4825C150.534 36.4325 150.454 36.2725 150.454 35.9225V21.4525C150.454 21.1225 150.504 20.9825 150.854 20.9325C151.224 20.8825 151.884 20.8425 152.424 20.8425C152.964 20.8425 153.434 20.8725 153.754 20.9325C154.064 20.9825 154.174 21.0725 154.204 21.3125L154.344 22.4425C154.364 22.6025 154.434 22.6325 154.584 22.6325H154.654C154.844 22.6325 154.884 22.6325 155.004 22.5125Z" fill="#2D2E82"/>
<path d="M174.305 30.8826C174.305 33.3626 175.355 33.8626 177.325 33.8626C178.285 33.8626 179.155 33.6926 179.555 33.6226C179.835 33.5726 180.065 33.5926 180.115 33.8826C180.215 34.5126 180.275 35.3826 180.205 36.0126C180.175 36.3126 180.065 36.3826 179.805 36.4526C179.265 36.5926 178.145 36.8526 176.405 36.8526C172.745 36.8526 170.255 35.4226 170.255 31.2526V16.9326C170.255 16.5826 170.325 16.4626 170.695 16.3926C171.145 16.3026 171.705 16.2726 172.285 16.2726C172.865 16.2726 173.415 16.3026 173.875 16.3926C174.245 16.4626 174.325 16.5826 174.325 16.9326V20.5926C174.325 20.8226 174.425 20.9226 174.655 20.9226H179.085C179.385 20.9226 179.505 20.9726 179.555 21.2926C179.605 21.5926 179.625 22.0226 179.625 22.4226C179.625 22.8226 179.605 23.2626 179.555 23.5526C179.505 23.8626 179.375 23.9226 179.085 23.9226H174.655C174.425 23.9226 174.325 24.0226 174.325 24.2526V30.8826H174.305Z" fill="#2D2E82"/>
<path d="M198.184 30.1126H186.514C186.284 30.1126 186.184 30.1826 186.184 30.3726C186.184 33.0926 188.904 33.8226 191.834 33.8226C194.414 33.8226 196.154 33.1926 196.994 32.9726C197.304 32.8826 197.514 32.9426 197.574 33.2526C197.664 33.7626 197.714 34.7826 197.664 35.3226C197.634 35.7026 197.594 35.8126 197.264 35.9326C196.674 36.1626 194.264 36.7826 191.514 36.7826C185.984 36.7826 181.944 34.8626 181.944 28.7426C181.944 23.5426 184.784 20.6526 190.474 20.6526C195.564 20.6526 198.894 22.8326 198.894 28.0626C198.894 28.5826 198.864 29.3226 198.824 29.5926C198.774 30.0426 198.634 30.1026 198.194 30.1026L198.184 30.1126ZM186.164 27.2026C186.164 27.4126 186.214 27.5026 186.494 27.5026H194.394C194.634 27.5026 194.724 27.4126 194.724 27.2026C194.724 24.7626 193.244 23.4026 190.504 23.4026C187.764 23.4026 186.284 24.7126 186.164 27.2026Z" fill="#2D2E82"/>
<path d="M206.764 22.6325C207.914 21.2925 209.514 20.6625 211.644 20.6625C212.064 20.6625 212.324 20.6825 212.534 20.7125C212.844 20.7625 212.914 20.8725 212.974 21.1525C213.114 21.8625 213.064 23.1425 212.954 23.7325C212.884 24.1325 212.724 24.1525 212.344 24.1325C212.034 24.1125 211.544 24.1025 211.034 24.1025C208.474 24.1025 206.224 25.2225 206.224 29.0225V35.9225C206.224 36.2725 206.134 36.4325 205.774 36.4825C205.324 36.5525 204.784 36.5825 204.184 36.5825C203.584 36.5825 203.064 36.5525 202.614 36.4825C202.244 36.4325 202.164 36.2725 202.164 35.9225V21.4525C202.164 21.1225 202.214 20.9825 202.564 20.9325C202.934 20.8825 203.524 20.8425 204.064 20.8425C204.604 20.8425 205.114 20.8725 205.424 20.9325C205.734 20.9825 205.844 21.0725 205.874 21.3125L206.064 22.5725C206.084 22.7325 206.154 22.7625 206.304 22.7625H206.404C206.594 22.7625 206.644 22.7625 206.754 22.6425L206.764 22.6325Z" fill="#2D2E82"/>
<path d="M31.9645 54.0476C30.6045 54.0476 29.2445 53.7476 28.0245 53.1576L6.22449 42.4976C6.22449 42.4976 6.14449 42.4576 6.10449 42.4276C3.64449 41.1676 2.11449 38.8476 2.10449 36.3376V32.5976V31.7876C2.10449 30.1076 2.99449 28.5876 4.53449 27.6276C6.34449 26.4976 8.67449 26.3876 10.6045 27.3376L29.3845 36.5276C30.9745 37.3076 32.9545 37.3076 34.5445 36.5276L56.3345 25.8576C57.8045 25.1376 58.7245 23.8376 58.7245 22.4776V18.7376V17.9376C58.7245 17.1276 58.1145 16.6276 57.7545 16.4076C56.8545 15.8476 55.6545 15.7876 54.6845 16.2676L36.3445 25.2176C33.6445 26.5376 30.2845 26.5376 27.5745 25.2176L6.41449 15.3776C4.67449 14.5276 3.65449 12.9876 3.65449 11.2376C3.65449 9.48762 4.67449 7.94762 6.38449 7.11762L11.4845 4.57762C13.8645 3.38762 16.7145 3.37762 19.1045 4.53762L21.1245 5.51762C21.8945 5.88762 22.2145 6.81762 21.8445 7.58762C21.4745 8.35762 20.5445 8.67762 19.7745 8.30762L17.7545 7.32762C16.2145 6.58762 14.3945 6.59762 12.8645 7.35762L7.75449 9.90762C7.11449 10.2176 6.75449 10.7076 6.75449 11.2576C6.75449 11.8076 7.11449 12.2876 7.74449 12.5976L28.9145 22.4376C30.8045 23.3676 33.1245 23.3676 34.9845 22.4476L53.3245 13.4976C55.2545 12.5576 57.5845 12.6676 59.3945 13.7876C60.9345 14.7476 61.8145 16.2576 61.8245 17.9476V18.7476V22.4976C61.8245 25.0576 60.2445 27.4176 57.7045 28.6576L35.9145 39.3176C33.4845 40.5076 30.4645 40.5076 28.0345 39.3176L9.24449 30.1176C8.27449 29.6476 7.06449 29.6976 6.17449 30.2576C5.81449 30.4776 5.20449 30.9776 5.20449 31.7876V32.5876V36.3276C5.20449 37.6976 6.12449 38.9876 7.59449 39.7076C7.63449 39.7276 7.66449 39.7476 7.70449 39.7676L29.3945 50.3776C30.9845 51.1576 32.9545 51.1576 34.5445 50.3776L59.5945 38.0276C60.3645 37.6476 61.2945 37.9676 61.6645 38.7276C62.0445 39.4976 61.7245 40.4276 60.9645 40.7976L35.9145 53.1476C34.6945 53.7476 33.3345 54.0376 31.9745 54.0376L31.9645 54.0476ZM23.5045 43.8776C23.2745 43.8776 23.0445 43.8276 22.8245 43.7176L14.4845 39.6576C13.7145 39.2876 13.3945 38.3576 13.7745 37.5876C14.1445 36.8176 15.0745 36.4976 15.8445 36.8776L24.1845 40.9376C24.9545 41.3076 25.2745 42.2376 24.8945 43.0076C24.6245 43.5576 24.0745 43.8776 23.5045 43.8776ZM10.7045 37.6276C10.4745 37.6276 10.2345 37.5776 10.0145 37.4676L9.09449 37.0076C8.32449 36.6276 8.01449 35.6976 8.39449 34.9276C8.77449 34.1576 9.70449 33.8476 10.4745 34.2276L11.3945 34.6876C12.1645 35.0676 12.4745 35.9976 12.0945 36.7676C11.8245 37.3076 11.2745 37.6276 10.7045 37.6276ZM40.2745 30.0776C39.7045 30.0776 39.1445 29.7576 38.8845 29.2076C38.5145 28.4376 38.8345 27.5076 39.5945 27.1376L47.9345 23.0776C48.7045 22.6976 49.6345 23.0276 50.0045 23.7876C50.3745 24.5576 50.0545 25.4876 49.2945 25.8576L40.9545 29.9176C40.7345 30.0276 40.5045 30.0776 40.2745 30.0776ZM53.0745 23.8176C52.5045 23.8176 51.9545 23.5076 51.6845 22.9576C51.3045 22.1876 51.6145 21.2576 52.3845 20.8776L53.3045 20.4176C54.0645 20.0376 54.9945 20.3476 55.3845 21.1176C55.7645 21.8876 55.4545 22.8176 54.6845 23.1976L53.7645 23.6576C53.5445 23.7676 53.3045 23.8176 53.0745 23.8176ZM31.9345 13.6876C31.1745 13.6876 30.4045 13.5176 29.7045 13.1676L26.5445 11.6276C25.7745 11.2476 25.4545 10.3276 25.8345 9.55762C26.2145 8.78762 27.1345 8.46762 27.9045 8.84762L31.0645 10.3876C31.6045 10.6476 32.2245 10.6576 32.7745 10.4076L44.2245 5.16762C45.0045 4.80762 45.9245 5.15762 46.2745 5.92762C46.6345 6.70762 46.2845 7.62762 45.5145 7.97762L34.0645 13.2176C33.3845 13.5276 32.6645 13.6776 31.9445 13.6776L31.9345 13.6876Z" fill="url(#paint0_linear_1843_111)"/>
<defs>
<linearGradient id="paint0_linear_1843_111" x1="14.6345" y1="12.7076" x2="56.2845" y2="48.3476" gradientUnits="userSpaceOnUse">
<stop stop-color="#BC1E90"/>
<stop offset="1" stop-color="#2D2E82"/>
</linearGradient>
</defs>
</svg>
