<svg width="75" height="76" viewBox="0 0 75 76" fill="none" xmlns="http://www.w3.org/2000/svg">
<path opacity="0.2" d="M37.4599 26.178C36.3199 26.178 35.1799 25.918 34.1299 25.408L30.9699 23.868C28.9599 22.888 28.1199 20.458 29.0999 18.448C30.0799 16.438 32.4999 15.598 34.5199 16.578L37.4699 18.018L48.7099 12.878C50.7499 11.948 53.1499 12.838 54.0799 14.878C55.0099 16.908 54.1199 19.318 52.0799 20.248L40.6299 25.488C39.6199 25.948 38.5399 26.178 37.4699 26.178H37.4599Z" fill="#BC1E90"/>
<path d="M37.4996 64.038C36.1396 64.038 34.7796 63.738 33.5596 63.148L11.7596 52.488C11.7596 52.488 11.6796 52.448 11.6396 52.418C9.17965 51.158 7.64965 48.838 7.63965 46.328V42.588V41.778C7.63965 40.098 8.52965 38.578 10.0696 37.618C11.8796 36.488 14.2096 36.378 16.1396 37.328L34.9196 46.518C36.5096 47.298 38.4896 47.298 40.0796 46.518L61.8696 35.848C63.3396 35.128 64.2596 33.828 64.2596 32.468V28.728V27.928C64.2596 27.118 63.6496 26.618 63.2896 26.398C62.3896 25.838 61.1897 25.778 60.2197 26.258L41.8797 35.208C39.1797 36.528 35.8196 36.528 33.1096 35.208L11.9496 25.368C10.2096 24.518 9.18965 22.978 9.18965 21.228C9.18965 19.478 10.2096 17.938 11.9196 17.108L17.0196 14.568C19.3996 13.378 22.2496 13.368 24.6396 14.528L26.6596 15.508C27.4296 15.878 27.7496 16.808 27.3796 17.578C27.0096 18.348 26.0796 18.668 25.3096 18.298L23.2896 17.318C21.7496 16.578 19.9296 16.588 18.3996 17.348L13.2896 19.898C12.6496 20.208 12.2896 20.698 12.2896 21.248C12.2896 21.798 12.6496 22.278 13.2796 22.588L34.4496 32.428C36.3396 33.358 38.6596 33.358 40.5196 32.438L58.8596 23.488C60.7896 22.548 63.1196 22.658 64.9296 23.778C66.4696 24.738 67.3496 26.248 67.3596 27.938V28.738V32.488C67.3596 35.048 65.7796 37.408 63.2396 38.648L41.4496 49.308C39.0196 50.498 35.9996 50.498 33.5696 49.308L14.7796 40.108C13.8096 39.638 12.5996 39.688 11.7096 40.248C11.3496 40.468 10.7396 40.968 10.7396 41.778V42.578V46.318C10.7396 47.688 11.6596 48.978 13.1296 49.698C13.1696 49.718 13.1996 49.738 13.2396 49.758L34.9296 60.368C36.5196 61.148 38.4896 61.148 40.0796 60.368L65.1297 48.018C65.8997 47.638 66.8296 47.958 67.1996 48.718C67.5796 49.488 67.2596 50.418 66.4996 50.788L41.4496 63.138C40.2296 63.738 38.8696 64.028 37.5096 64.028L37.4996 64.038ZM29.0396 53.868C28.8096 53.868 28.5796 53.818 28.3596 53.708L20.0196 49.648C19.2496 49.278 18.9296 48.348 19.3096 47.578C19.6796 46.808 20.6096 46.488 21.3796 46.868L29.7196 50.928C30.4896 51.298 30.8096 52.228 30.4296 52.998C30.1596 53.548 29.6096 53.868 29.0396 53.868ZM16.2396 47.618C16.0096 47.618 15.7696 47.568 15.5496 47.458L14.6296 46.998C13.8596 46.618 13.5496 45.688 13.9296 44.918C14.3096 44.148 15.2396 43.838 16.0096 44.218L16.9296 44.678C17.6996 45.058 18.0096 45.988 17.6296 46.758C17.3596 47.298 16.8096 47.618 16.2396 47.618ZM45.8096 40.068C45.2396 40.068 44.6796 39.748 44.4196 39.198C44.0496 38.428 44.3697 37.498 45.1297 37.128L53.4697 33.068C54.2397 32.688 55.1696 33.018 55.5396 33.778C55.9096 34.548 55.5896 35.478 54.8296 35.848L46.4896 39.908C46.2696 40.018 46.0396 40.068 45.8096 40.068ZM58.6096 33.808C58.0396 33.808 57.4897 33.498 57.2197 32.948C56.8397 32.178 57.1496 31.248 57.9196 30.868L58.8396 30.408C59.5996 30.028 60.5296 30.338 60.9196 31.108C61.2996 31.878 60.9897 32.808 60.2197 33.188L59.2996 33.648C59.0796 33.758 58.8396 33.808 58.6096 33.808ZM37.4696 23.678C36.7096 23.678 35.9396 23.508 35.2396 23.158L32.0796 21.618C31.3096 21.238 30.9896 20.318 31.3696 19.548C31.7496 18.778 32.6696 18.458 33.4396 18.838L36.5996 20.378C37.1396 20.638 37.7596 20.648 38.3096 20.398L49.7596 15.158C50.5396 14.798 51.4596 15.148 51.8096 15.918C52.1696 16.698 51.8196 17.618 51.0496 17.968L39.5996 23.208C38.9196 23.518 38.1996 23.668 37.4796 23.668L37.4696 23.678Z" fill="url(#paint0_linear_1848_110)"/>
<defs>
<linearGradient id="paint0_linear_1848_110" x1="20.1696" y1="22.698" x2="61.8196" y2="58.338" gradientUnits="userSpaceOnUse">
<stop stop-color="#BC1E90"/>
<stop offset="1" stop-color="#2D2E82"/>
</linearGradient>
</defs>
</svg>
